<svg width="131" height="63" viewBox="0 0 131 63" fill="none" xmlns="http://www.w3.org/2000/svg">
<path d="M16.5945 45.064C14.5038 45.064 12.6158 44.6373 10.9305 43.784C9.2665 42.9093 7.9545 41.6187 6.9945 39.912C6.0345 38.2053 5.5545 36.104 5.5545 33.608C5.5545 31.112 6.0345 28.9573 6.9945 27.144C7.97583 25.3307 9.30917 23.944 10.9945 22.984C12.7012 22.0027 14.6425 21.512 16.8185 21.512C19.3358 21.512 21.2665 21.864 22.6105 22.568C23.9545 23.272 24.6265 24.3173 24.6265 25.704C24.6265 26.7707 24.3385 27.656 23.7625 28.36C23.1865 29.0427 22.3972 29.384 21.3945 29.384C20.5412 29.384 19.7092 29.2773 18.8985 29.064C18.1092 28.8293 17.1812 28.712 16.1145 28.712C14.7492 28.712 13.6718 29.1067 12.8825 29.896C12.0932 30.6853 11.6985 31.72 11.6985 33C11.6985 34.2587 12.0932 35.3147 12.8825 36.168C13.6718 37 14.7492 37.416 16.1145 37.416C16.8398 37.416 17.5012 37.3627 18.0985 37.256C18.7172 37.128 19.3145 37 19.8905 36.872C20.4878 36.744 21.1278 36.68 21.8105 36.68C22.9412 36.68 23.7732 37.0533 24.3065 37.8C24.8398 38.5253 25.1065 39.432 25.1065 40.52C25.1065 41.608 24.7118 42.4933 23.9225 43.176C23.1332 43.8373 22.0878 44.3173 20.7865 44.616C19.5065 44.9147 18.1092 45.064 16.5945 45.064ZM31.35 45C29.7713 45 28.534 44.5733 27.638 43.72C26.7633 42.8667 26.326 41.672 26.326 40.136C26.326 38.6 26.838 37.4907 27.862 36.808C28.886 36.104 30.198 35.752 31.798 35.752C32.7367 35.752 33.59 35.816 34.358 35.944C35.126 36.072 35.8193 36.2533 36.438 36.488H36.534V36.008C36.534 35.5173 36.3527 35.1333 35.99 34.856C35.6273 34.5573 35.1687 34.4187 34.614 34.44C34.0807 34.44 33.622 34.472 33.238 34.536C32.8753 34.6 32.4167 34.7067 31.862 34.856C30.838 35.112 29.9527 35.0907 29.206 34.792C28.4593 34.4933 27.9473 33.9067 27.67 33.032C27.414 32.1147 27.4673 31.3467 27.83 30.728C28.214 30.1093 28.79 29.6293 29.558 29.288C30.2193 28.968 30.9553 28.7013 31.766 28.488C32.598 28.2747 33.494 28.168 34.454 28.168C37.2487 28.168 39.2967 28.8507 40.598 30.216C41.9207 31.56 42.582 33.8213 42.582 37V41.96C42.582 42.8347 42.3153 43.56 41.782 44.136C41.2487 44.712 40.5127 45 39.574 45C38.55 45 37.782 44.712 37.27 44.136C36.7793 43.56 36.534 42.856 36.534 42.024V41.288H35.894C35.894 41.8427 35.7873 42.408 35.574 42.984C35.382 43.56 34.966 44.04 34.326 44.424C33.7073 44.808 32.7153 45 31.35 45ZM31.67 37.992C31.67 38.3547 31.798 38.6107 32.054 38.76C32.3313 38.9093 32.918 38.984 33.814 38.984C34.6247 38.984 35.19 38.9093 35.51 38.76C35.83 38.6107 35.99 38.3547 35.99 37.992C35.99 37.6507 35.83 37.416 35.51 37.288C35.19 37.1387 34.6247 37.064 33.814 37.064C32.918 37.064 32.3313 37.1387 32.054 37.288C31.798 37.416 31.67 37.6507 31.67 37.992ZM49.487 45C48.591 45 47.855 44.7227 47.279 44.168C46.7243 43.592 46.447 42.8773 46.447 42.024V34.888C45.8923 35.016 45.391 34.9413 44.943 34.664C44.495 34.3653 44.1323 33.9387 43.855 33.384C43.599 32.808 43.471 32.1893 43.471 31.528C43.471 30.8667 43.6097 30.2587 43.887 29.704C44.1643 29.1493 44.527 28.7333 44.975 28.456C45.4443 28.1573 45.9563 28.0933 46.511 28.264C46.6177 26.6853 46.8737 25.288 47.279 24.072C47.7057 22.8347 48.335 21.864 49.167 21.16C50.0203 20.456 51.1297 20.104 52.495 20.104C53.647 20.104 54.5643 20.3813 55.247 20.936C55.951 21.4907 56.4417 22.1093 56.719 22.792H56.751C57.2203 21.9387 57.8283 21.2773 58.575 20.808C59.343 20.3387 60.2817 20.104 61.391 20.104C62.5643 20.104 63.503 20.3493 64.207 20.84C64.911 21.3307 65.4017 21.9493 65.679 22.696C65.9777 23.4213 66.0737 24.136 65.967 24.84C65.8603 25.48 65.551 26.056 65.039 26.568C64.5483 27.08 63.8977 27.3467 63.087 27.368C62.383 27.368 61.807 27.24 61.359 26.984C60.911 26.728 60.5483 26.4187 60.271 26.056C59.9937 25.672 59.7377 25.3093 59.503 24.968C58.9697 24.136 58.4363 23.848 57.903 24.104C57.6257 24.2533 57.4657 24.4987 57.423 24.84C57.4017 25.16 57.5083 25.5333 57.743 25.96L58.479 27.176C58.8417 27.7733 59.2257 28.168 59.631 28.36C60.0363 28.5307 60.5377 28.5733 61.135 28.488L62.671 28.264C63.6523 28.1147 64.4523 28.3707 65.071 29.032C65.6897 29.6933 65.999 30.5253 65.999 31.528C65.999 32.5733 65.679 33.4267 65.039 34.088C64.4203 34.728 63.663 34.9947 62.767 34.888L61.391 34.728V42.024C61.391 42.8773 61.1137 43.592 60.559 44.168C60.0043 44.7227 59.2577 45 58.319 45C57.423 45 56.6977 44.7227 56.143 44.168C55.5883 43.592 55.311 42.8773 55.311 42.024V34.728C54.3723 34.3653 53.455 34.3653 52.559 34.728V42.024C52.559 42.8773 52.2817 43.592 51.727 44.168C51.1723 44.7227 50.4257 45 49.487 45ZM49.487 26.952C49.807 27.4853 50.159 27.9013 50.543 28.2C50.9483 28.4987 51.4497 28.7227 52.047 28.872C52.5803 29 53.135 29.0533 53.711 29.032C54.3083 28.9893 54.8523 28.872 55.343 28.68V26.984C55.0657 27.24 54.6497 27.368 54.095 27.368C53.391 27.368 52.8257 27.24 52.399 26.984C51.9723 26.728 51.631 26.4187 51.375 26.056C51.119 25.672 50.8843 25.3093 50.671 24.968C50.1377 24.1147 49.5937 23.8267 49.039 24.104C48.7617 24.2533 48.6123 24.4987 48.591 24.84C48.5697 25.16 48.6763 25.5333 48.911 25.96L49.487 26.952ZM67.1735 36.68C67.1735 34.9947 67.5042 33.512 68.1655 32.232C68.8482 30.952 69.8082 29.9493 71.0455 29.224C72.3042 28.4987 73.7975 28.136 75.5255 28.136C76.8695 28.136 78.0748 28.3813 79.1415 28.872C80.2295 29.3627 81.0828 30.024 81.7015 30.856C82.3202 31.6667 82.6295 32.5627 82.6295 33.544C82.6295 34.568 82.3308 35.2933 81.7335 35.72C81.1362 36.1467 80.2508 36.36 79.0775 36.36H72.3575C72.3575 36.9147 72.5708 37.3733 72.9975 37.736C73.4455 38.0987 74.1922 38.28 75.2375 38.28C75.7708 38.28 76.2615 38.2267 76.7095 38.12C77.1788 38.0133 77.6482 37.9173 78.1175 37.832C78.6082 37.7253 79.1522 37.672 79.7495 37.672C80.6028 37.672 81.3068 37.9813 81.8615 38.6C82.4162 39.1973 82.6935 40.0293 82.6935 41.096C82.6935 42.3547 82.0428 43.336 80.7415 44.04C79.4615 44.744 77.7762 45.096 75.6855 45.096C74.2135 45.096 72.8268 44.808 71.5255 44.232C70.2455 43.656 69.2002 42.7493 68.3895 41.512C67.5788 40.2533 67.1735 38.6427 67.1735 36.68ZM77.5415 35.304C77.8615 35.304 77.9682 35.1547 77.8615 34.856C77.7762 34.5573 77.5202 34.248 77.0935 33.928C76.6668 33.608 76.0482 33.448 75.2375 33.448C74.2988 33.448 73.5948 33.6507 73.1255 34.056C72.6775 34.4613 72.4535 34.8773 72.4535 35.304H77.5415ZM84.0173 36.68C84.0173 34.9947 84.3479 33.512 85.0093 32.232C85.6919 30.952 86.6519 29.9493 87.8893 29.224C89.1479 28.4987 90.6413 28.136 92.3693 28.136C93.7133 28.136 94.9186 28.3813 95.9853 28.872C97.0733 29.3627 97.9266 30.024 98.5453 30.856C99.1639 31.6667 99.4733 32.5627 99.4733 33.544C99.4733 34.568 99.1746 35.2933 98.5773 35.72C97.9799 36.1467 97.0946 36.36 95.9213 36.36H89.2013C89.2013 36.9147 89.4146 37.3733 89.8413 37.736C90.2893 38.0987 91.0359 38.28 92.0813 38.28C92.6146 38.28 93.1053 38.2267 93.5533 38.12C94.0226 38.0133 94.4919 37.9173 94.9613 37.832C95.4519 37.7253 95.9959 37.672 96.5933 37.672C97.4466 37.672 98.1506 37.9813 98.7053 38.6C99.2599 39.1973 99.5373 40.0293 99.5373 41.096C99.5373 42.3547 98.8866 43.336 97.5853 44.04C96.3053 44.744 94.6199 45.096 92.5293 45.096C91.0573 45.096 89.6706 44.808 88.3693 44.232C87.0893 43.656 86.0439 42.7493 85.2333 41.512C84.4226 40.2533 84.0173 38.6427 84.0173 36.68ZM94.3853 35.304C94.7053 35.304 94.8119 35.1547 94.7053 34.856C94.6199 34.5573 94.3639 34.248 93.9373 33.928C93.5106 33.608 92.8919 33.448 92.0813 33.448C91.1426 33.448 90.4386 33.6507 89.9693 34.056C89.5213 34.4613 89.2973 34.8773 89.2973 35.304H94.3853ZM104.477 45.064C103.496 45.064 102.696 44.7653 102.077 44.168C101.458 43.5707 101.149 42.8133 101.149 41.896V24.968C101.149 24.0293 101.448 23.24 102.045 22.6C102.664 21.96 103.474 21.64 104.477 21.64C105.544 21.64 106.376 21.96 106.973 22.6C107.592 23.2187 107.901 23.9867 107.901 24.904V41.896C107.901 42.8133 107.57 43.5707 106.909 44.168C106.269 44.7653 105.458 45.064 104.477 45.064ZM112.906 45C111.967 45 111.21 44.7227 110.634 44.168C110.079 43.592 109.802 42.888 109.802 42.056V31.464C109.802 30.568 110.068 29.8107 110.602 29.192C111.135 28.5733 111.903 28.264 112.906 28.264C113.887 28.264 114.634 28.5733 115.146 29.192C115.658 29.8107 115.914 30.5893 115.914 31.528V33.128H116.49C116.49 31.912 116.703 30.952 117.13 30.248C117.578 29.544 118.143 29.0427 118.826 28.744C119.508 28.424 120.191 28.264 120.874 28.264C122.516 28.264 123.722 28.8613 124.49 30.056C125.258 31.2293 125.642 32.904 125.642 35.08V42.056C125.642 42.888 125.364 43.592 124.81 44.168C124.255 44.7227 123.508 45 122.57 45C121.61 45 120.842 44.7227 120.266 44.168C119.711 43.592 119.434 42.888 119.434 42.056V36.392C119.434 35.624 119.284 35.0267 118.986 34.6C118.708 34.1733 118.292 33.96 117.738 33.96C117.098 33.96 116.628 34.1947 116.33 34.664C116.052 35.1333 115.914 35.7307 115.914 36.456V42.056C115.914 42.888 115.647 43.592 115.114 44.168C114.58 44.7227 113.844 45 112.906 45Z" fill="#CCC7BA"/>
<path d="M73.7656 24.9062C73.7656 24.0208 74.0573 23.2083 74.6406 22.4688C75.224 21.7292 75.8958 21.1719 76.6562 20.7969C76.7292 20.7552 76.8229 20.7344 76.9375 20.7344C77.0312 20.7344 77.1979 20.7812 77.4375 20.875C77.6771 20.9688 77.901 21.0833 78.1094 21.2188C78.3281 21.3542 78.4375 21.4948 78.4375 21.6406C78.4375 21.776 78.3125 21.9896 78.0625 22.2812C77.8125 22.5625 77.5625 22.9323 77.3125 23.3906C77.0625 23.8385 76.9323 24.3802 76.9219 25.0156C76.9115 25.276 76.8646 25.4688 76.7812 25.5938C76.6979 25.7188 76.5208 25.7917 76.25 25.8125L74.4375 25.9531C74.1146 25.974 73.9219 25.8646 73.8594 25.625C73.7969 25.3854 73.7656 25.1458 73.7656 24.9062Z" fill="#CCC7BA"/>
<path d="M13.919 30.8296C15.267 29.388 22.0206 31.6724 23.3686 30.2308C24.7166 28.7892 23.8616 34.5432 21.231 35.2866C18.6004 36.03 17.0996 36.3146 14.8346 35.5399C12.5696 34.7653 12.571 32.2712 13.919 30.8296Z" fill="#CCC7BA"/>
</svg>
