<svg width="131" height="30" viewBox="0 0 131 30" fill="none" xmlns="http://www.w3.org/2000/svg">
<path d="M16.5945 29.064C14.5038 29.064 12.6158 28.6373 10.9305 27.784C9.2665 26.9093 7.9545 25.6187 6.9945 23.912C6.0345 22.2053 5.5545 20.104 5.5545 17.608C5.5545 15.112 6.0345 12.9573 6.9945 11.144C7.97583 9.33067 9.30917 7.944 10.9945 6.984C12.7012 6.00267 14.6425 5.512 16.8185 5.512C19.3358 5.512 21.2665 5.864 22.6105 6.568C23.9545 7.272 24.6265 8.31733 24.6265 9.704C24.6265 10.7707 24.3385 11.656 23.7625 12.36C23.1865 13.0427 22.3972 13.384 21.3945 13.384C20.5412 13.384 19.7092 13.2773 18.8985 13.064C18.1092 12.8293 17.1812 12.712 16.1145 12.712C14.7492 12.712 13.6718 13.1067 12.8825 13.896C12.0932 14.6853 11.6985 15.72 11.6985 17C11.6985 18.2587 12.0932 19.3147 12.8825 20.168C13.6718 21 14.7492 21.416 16.1145 21.416C16.8398 21.416 17.5012 21.3627 18.0985 21.256C18.7172 21.128 19.3145 21 19.8905 20.872C20.4878 20.744 21.1278 20.68 21.8105 20.68C22.9412 20.68 23.7732 21.0533 24.3065 21.8C24.8398 22.5253 25.1065 23.432 25.1065 24.52C25.1065 25.608 24.7118 26.4933 23.9225 27.176C23.1332 27.8373 22.0878 28.3173 20.7865 28.616C19.5065 28.9147 18.1092 29.064 16.5945 29.064ZM31.35 29C29.7713 29 28.534 28.5733 27.638 27.72C26.7633 26.8667 26.326 25.672 26.326 24.136C26.326 22.6 26.838 21.4907 27.862 20.808C28.886 20.104 30.198 19.752 31.798 19.752C32.7367 19.752 33.59 19.816 34.358 19.944C35.126 20.072 35.8193 20.2533 36.438 20.488H36.534V20.008C36.534 19.5173 36.3527 19.1333 35.99 18.856C35.6273 18.5573 35.1687 18.4187 34.614 18.44C34.0807 18.44 33.622 18.472 33.238 18.536C32.8753 18.6 32.4167 18.7067 31.862 18.856C30.838 19.112 29.9527 19.0907 29.206 18.792C28.4593 18.4933 27.9473 17.9067 27.67 17.032C27.414 16.1147 27.4673 15.3467 27.83 14.728C28.214 14.1093 28.79 13.6293 29.558 13.288C30.2193 12.968 30.9553 12.7013 31.766 12.488C32.598 12.2747 33.494 12.168 34.454 12.168C37.2487 12.168 39.2967 12.8507 40.598 14.216C41.9207 15.56 42.582 17.8213 42.582 21V25.96C42.582 26.8347 42.3153 27.56 41.782 28.136C41.2487 28.712 40.5127 29 39.574 29C38.55 29 37.782 28.712 37.27 28.136C36.7793 27.56 36.534 26.856 36.534 26.024V25.288H35.894C35.894 25.8427 35.7873 26.408 35.574 26.984C35.382 27.56 34.966 28.04 34.326 28.424C33.7073 28.808 32.7153 29 31.35 29ZM31.67 21.992C31.67 22.3547 31.798 22.6107 32.054 22.76C32.3313 22.9093 32.918 22.984 33.814 22.984C34.6247 22.984 35.19 22.9093 35.51 22.76C35.83 22.6107 35.99 22.3547 35.99 21.992C35.99 21.6507 35.83 21.416 35.51 21.288C35.19 21.1387 34.6247 21.064 33.814 21.064C32.918 21.064 32.3313 21.1387 32.054 21.288C31.798 21.416 31.67 21.6507 31.67 21.992ZM49.487 29C48.591 29 47.855 28.7227 47.279 28.168C46.7243 27.592 46.447 26.8773 46.447 26.024V18.888C45.8923 19.016 45.391 18.9413 44.943 18.664C44.495 18.3653 44.1323 17.9387 43.855 17.384C43.599 16.808 43.471 16.1893 43.471 15.528C43.471 14.8667 43.6097 14.2587 43.887 13.704C44.1643 13.1493 44.527 12.7333 44.975 12.456C45.4443 12.1573 45.9563 12.0933 46.511 12.264C46.6177 10.6853 46.8737 9.288 47.279 8.072C47.7057 6.83467 48.335 5.864 49.167 5.16C50.0203 4.456 51.1297 4.104 52.495 4.104C53.647 4.104 54.5643 4.38133 55.247 4.936C55.951 5.49067 56.4417 6.10933 56.719 6.792H56.751C57.2203 5.93867 57.8283 5.27733 58.575 4.808C59.343 4.33867 60.2817 4.104 61.391 4.104C62.5643 4.104 63.503 4.34933 64.207 4.84C64.911 5.33066 65.4017 5.94933 65.679 6.696C65.9777 7.42133 66.0737 8.136 65.967 8.84C65.8603 9.48 65.551 10.056 65.039 10.568C64.5483 11.08 63.8977 11.3467 63.087 11.368C62.383 11.368 61.807 11.24 61.359 10.984C60.911 10.728 60.5483 10.4187 60.271 10.056C59.9937 9.672 59.7377 9.30933 59.503 8.968C58.9697 8.136 58.4363 7.848 57.903 8.104C57.6257 8.25333 57.4657 8.49867 57.423 8.84C57.4017 9.16 57.5083 9.53333 57.743 9.96L58.479 11.176C58.8417 11.7733 59.2257 12.168 59.631 12.36C60.0363 12.5307 60.5377 12.5733 61.135 12.488L62.671 12.264C63.6523 12.1147 64.4523 12.3707 65.071 13.032C65.6897 13.6933 65.999 14.5253 65.999 15.528C65.999 16.5733 65.679 17.4267 65.039 18.088C64.4203 18.728 63.663 18.9947 62.767 18.888L61.391 18.728V26.024C61.391 26.8773 61.1137 27.592 60.559 28.168C60.0043 28.7227 59.2577 29 58.319 29C57.423 29 56.6977 28.7227 56.143 28.168C55.5883 27.592 55.311 26.8773 55.311 26.024V18.728C54.3723 18.3653 53.455 18.3653 52.559 18.728V26.024C52.559 26.8773 52.2817 27.592 51.727 28.168C51.1723 28.7227 50.4257 29 49.487 29ZM49.487 10.952C49.807 11.4853 50.159 11.9013 50.543 12.2C50.9483 12.4987 51.4497 12.7227 52.047 12.872C52.5803 13 53.135 13.0533 53.711 13.032C54.3083 12.9893 54.8523 12.872 55.343 12.68V10.984C55.0657 11.24 54.6497 11.368 54.095 11.368C53.391 11.368 52.8257 11.24 52.399 10.984C51.9723 10.728 51.631 10.4187 51.375 10.056C51.119 9.672 50.8843 9.30933 50.671 8.968C50.1377 8.11467 49.5937 7.82667 49.039 8.104C48.7617 8.25333 48.6123 8.49867 48.591 8.84C48.5697 9.16 48.6763 9.53333 48.911 9.96L49.487 10.952ZM67.1735 20.68C67.1735 18.9947 67.5042 17.512 68.1655 16.232C68.8482 14.952 69.8082 13.9493 71.0455 13.224C72.3042 12.4987 73.7975 12.136 75.5255 12.136C76.8695 12.136 78.0748 12.3813 79.1415 12.872C80.2295 13.3627 81.0828 14.024 81.7015 14.856C82.3202 15.6667 82.6295 16.5627 82.6295 17.544C82.6295 18.568 82.3308 19.2933 81.7335 19.72C81.1362 20.1467 80.2508 20.36 79.0775 20.36H72.3575C72.3575 20.9147 72.5708 21.3733 72.9975 21.736C73.4455 22.0987 74.1922 22.28 75.2375 22.28C75.7708 22.28 76.2615 22.2267 76.7095 22.12C77.1788 22.0133 77.6482 21.9173 78.1175 21.832C78.6082 21.7253 79.1522 21.672 79.7495 21.672C80.6028 21.672 81.3068 21.9813 81.8615 22.6C82.4162 23.1973 82.6935 24.0293 82.6935 25.096C82.6935 26.3547 82.0428 27.336 80.7415 28.04C79.4615 28.744 77.7762 29.096 75.6855 29.096C74.2135 29.096 72.8268 28.808 71.5255 28.232C70.2455 27.656 69.2002 26.7493 68.3895 25.512C67.5788 24.2533 67.1735 22.6427 67.1735 20.68ZM77.5415 19.304C77.8615 19.304 77.9682 19.1547 77.8615 18.856C77.7762 18.5573 77.5202 18.248 77.0935 17.928C76.6668 17.608 76.0482 17.448 75.2375 17.448C74.2988 17.448 73.5948 17.6507 73.1255 18.056C72.6775 18.4613 72.4535 18.8773 72.4535 19.304H77.5415ZM84.0173 20.68C84.0173 18.9947 84.3479 17.512 85.0093 16.232C85.6919 14.952 86.6519 13.9493 87.8893 13.224C89.1479 12.4987 90.6413 12.136 92.3693 12.136C93.7133 12.136 94.9186 12.3813 95.9853 12.872C97.0733 13.3627 97.9266 14.024 98.5453 14.856C99.1639 15.6667 99.4733 16.5627 99.4733 17.544C99.4733 18.568 99.1746 19.2933 98.5773 19.72C97.9799 20.1467 97.0946 20.36 95.9213 20.36H89.2013C89.2013 20.9147 89.4146 21.3733 89.8413 21.736C90.2893 22.0987 91.0359 22.28 92.0813 22.28C92.6146 22.28 93.1053 22.2267 93.5533 22.12C94.0226 22.0133 94.4919 21.9173 94.9613 21.832C95.4519 21.7253 95.9959 21.672 96.5933 21.672C97.4466 21.672 98.1506 21.9813 98.7053 22.6C99.2599 23.1973 99.5373 24.0293 99.5373 25.096C99.5373 26.3547 98.8866 27.336 97.5853 28.04C96.3053 28.744 94.6199 29.096 92.5293 29.096C91.0573 29.096 89.6706 28.808 88.3693 28.232C87.0893 27.656 86.0439 26.7493 85.2333 25.512C84.4226 24.2533 84.0173 22.6427 84.0173 20.68ZM94.3853 19.304C94.7053 19.304 94.8119 19.1547 94.7053 18.856C94.6199 18.5573 94.3639 18.248 93.9373 17.928C93.5106 17.608 92.8919 17.448 92.0813 17.448C91.1426 17.448 90.4386 17.6507 89.9693 18.056C89.5213 18.4613 89.2973 18.8773 89.2973 19.304H94.3853ZM104.477 29.064C103.496 29.064 102.696 28.7653 102.077 28.168C101.458 27.5707 101.149 26.8133 101.149 25.896V8.968C101.149 8.02933 101.448 7.24 102.045 6.6C102.664 5.96 103.474 5.64 104.477 5.64C105.544 5.64 106.376 5.96 106.973 6.6C107.592 7.21867 107.901 7.98667 107.901 8.904V25.896C107.901 26.8133 107.57 27.5707 106.909 28.168C106.269 28.7653 105.458 29.064 104.477 29.064ZM112.906 29C111.967 29 111.21 28.7227 110.634 28.168C110.079 27.592 109.802 26.888 109.802 26.056V15.464C109.802 14.568 110.068 13.8107 110.602 13.192C111.135 12.5733 111.903 12.264 112.906 12.264C113.887 12.264 114.634 12.5733 115.146 13.192C115.658 13.8107 115.914 14.5893 115.914 15.528V17.128H116.49C116.49 15.912 116.703 14.952 117.13 14.248C117.578 13.544 118.143 13.0427 118.826 12.744C119.508 12.424 120.191 12.264 120.874 12.264C122.516 12.264 123.722 12.8613 124.49 14.056C125.258 15.2293 125.642 16.904 125.642 19.08V26.056C125.642 26.888 125.364 27.592 124.81 28.168C124.255 28.7227 123.508 29 122.57 29C121.61 29 120.842 28.7227 120.266 28.168C119.711 27.592 119.434 26.888 119.434 26.056V20.392C119.434 19.624 119.284 19.0267 118.986 18.6C118.708 18.1733 118.292 17.96 117.738 17.96C117.098 17.96 116.628 18.1947 116.33 18.664C116.052 19.1333 115.914 19.7307 115.914 20.456V26.056C115.914 26.888 115.647 27.592 115.114 28.168C114.58 28.7227 113.844 29 112.906 29Z" fill="white"/>
<path d="M73.7656 8.90625C73.7656 8.02083 74.0573 7.20833 74.6406 6.46875C75.224 5.72917 75.8958 5.17188 76.6562 4.79688C76.7292 4.75521 76.8229 4.73438 76.9375 4.73438C77.0312 4.73438 77.1979 4.78125 77.4375 4.875C77.6771 4.96875 77.901 5.08333 78.1094 5.21875C78.3281 5.35417 78.4375 5.49479 78.4375 5.64062C78.4375 5.77604 78.3125 5.98958 78.0625 6.28125C77.8125 6.5625 77.5625 6.93229 77.3125 7.39062C77.0625 7.83854 76.9323 8.38021 76.9219 9.01562C76.9115 9.27604 76.8646 9.46875 76.7812 9.59375C76.6979 9.71875 76.5208 9.79167 76.25 9.8125L74.4375 9.95312C74.1146 9.97396 73.9219 9.86458 73.8594 9.625C73.7969 9.38542 73.7656 9.14583 73.7656 8.90625Z" fill="white"/>
<path d="M13.919 14.8296C15.267 13.388 22.0206 15.6724 23.3686 14.2308C24.7166 12.7892 23.8616 18.5432 21.231 19.2866C18.6004 20.03 17.0996 20.3146 14.8346 19.5399C12.5696 18.7653 12.571 16.2712 13.919 14.8296Z" fill="white"/>
</svg>
